<?xml version="1.0" encoding="iso-8859-1"?>
<!-- Uploaded to: SVG Repo, www.svgrepo.com, Generator: SVG Repo Mixer Tools -->
<!DOCTYPE svg PUBLIC "-//W3C//DTD SVG 1.1//EN" "http://www.w3.org/Graphics/SVG/1.1/DTD/svg11.dtd">
<svg fill="#000000" height="800px" width="800px" version="1.1" id="Capa_1" xmlns="http://www.w3.org/2000/svg" xmlns:xlink="http://www.w3.org/1999/xlink" 
	 viewBox="0 0 392.619 392.619" xml:space="preserve">
<g>
	<path d="M310.724,0.929H81.896C36.738,0.929,0,37.667,0,82.825v226.97c0,45.158,36.738,81.896,81.896,81.896h228.828
		c45.157,0,81.896-36.738,81.896-81.896V82.825C392.619,37.667,355.881,0.929,310.724,0.929z M362.619,309.794
		c0,28.616-23.28,51.896-51.896,51.896H81.896C53.28,361.69,30,338.41,30,309.794V82.825c0-28.616,23.28-51.896,51.896-51.896
		h228.828c28.615,0,51.896,23.28,51.896,51.896V309.794z"/>
	<path d="M291.608,286.594h-12.36c-1.954,0-3.704-1.209-4.396-3.036L205.179,99.565c-0.692-1.827-2.442-3.036-4.396-3.036h-2.045
		c-1.911,0-3.631,1.157-4.353,2.926l-67.527,165.629c-3.81,9.258-7.028,15.159-9.658,17.7s-7.695,3.81-15.193,3.81h-0.997
		c-2.596,0-4.701,2.104-4.701,4.701v0.095c0,2.596,2.104,4.701,4.701,4.701h53.71c2.596,0,4.701-2.104,4.701-4.701v-0.095
		c0-2.596-2.104-4.701-4.701-4.701h-6.117c-9.747,0-14.621-2.591-14.621-7.773c0-3.616,1.639-9.418,4.921-17.405l7.066-17.196
		c0.724-1.763,2.442-2.914,4.348-2.914h55.296c1.952,0,3.701,1.206,4.394,3.031l13.635,35.887c1.169,3.076-1.104,6.37-4.394,6.37
		h-14.66c-2.596,0-4.701,2.104-4.701,4.701v0.095c0,2.596,2.104,4.701,4.701,4.701h87.019c2.596,0,4.7-2.104,4.7-4.701v-0.095
		C296.309,288.698,294.204,286.594,291.608,286.594z M198.213,231.225h-39.891c-3.344,0-5.619-3.393-4.348-6.487l20.724-50.447
		c1.619-3.942,7.228-3.867,8.742,0.117l19.166,50.447C203.775,227.931,201.503,231.225,198.213,231.225z"/>
	<path d="M96.31,179.311c0-5.466-6.609-8.204-10.474-4.338l-18.933,18.933c-2.396,2.396-2.396,6.281,0,8.677l18.933,18.933
		c3.865,3.865,10.474,1.128,10.474-4.338V179.311z"/>
	<path d="M306.783,174.973c-3.865-3.865-10.474-1.128-10.474,4.338v37.866c0,5.466,6.609,8.203,10.474,4.338l18.933-18.933
		c2.396-2.396,2.396-6.281,0-8.677L306.783,174.973z"/>
</g>
</svg>